# xmcd
#
# Track frame offsets:
#	150
#	16386
#	33326
#	49222
#	63458
#	77426
#	94158
#	113372
#	130507
#	146616
#	161259
#	175041
#	191479
#	205775
#	219548
#	237615
#	250729
#	268324
#	285421
#	304016
#	323758
#	343998
#
# Disc length: 4784 seconds
#
# Revision: 1
# Processed by: cddbd v1.5.2PL0 Copyright (c) Steve Scherf et al.
# Submitted via: audiograbber 1.83.01
#
DISCID=3312ae16
DTITLE=Various Artist - Viva Summer Dance No.1
DYEAR=2004
DGENRE=Pop
TTITLE0=Alcazar - The World We Live In
TTITLE1=Kim Lian - Garden Of Love
TTITLE2=Vanilla Ninja - Club Kung-Fu
TTITLE3=Parla Et Paradox - Jump At Lets Party
TTITLE4=O-Zone - Dragostea Din Tei
TTITLE5=Safri-Duo feat. Clark Anderson - All The People
TTITLE6=Loft - Still No.1
TTITLE7=Grenada - First Love
TTITLE8=A-Teens - I Promed Myself
TTITLE9=New London Beat - ... Things About You
TTITLE10=Lena Philipsson - It Hurts
TTITLE11=Soca Girls - Cha Cha Slide
TTITLE12=Groove Coverage - Runway
TTITLE13=Ruslana - Wild Dance
TTITLE14=Jamelia - Superstar
TTITLE15=Klubbingman - Wonderland
TTITLE16=Double M - Tornerai
TTITLE17=Atb - Marrakech
TTITLE18=Colonia - A Little Bit Of Uh La La La
TTITLE19=Deep Spirit - Lonely
TTITLE20=Gigi D'Agostino and Mode - Gigi's Good Night
TTITLE21=Frankee - F.u.r.b.
EXTD=
EXTT0=
EXTT1=
EXTT2=
EXTT3=
EXTT4=
EXTT5=
EXTT6=
EXTT7=
EXTT8=
EXTT9=
EXTT10=
EXTT11=
EXTT12=
EXTT13=
EXTT14=
EXTT15=
EXTT16=
EXTT17=
EXTT18=
EXTT19=
EXTT20=
EXTT21=
PLAYORDER=
